<?xml version="1.0" encoding="utf-8"?>
<!-- Generator: Adobe Illustrator 22.0.0, SVG Export Plug-In . SVG Version: 6.00 Build 0)  -->
<svg version="1.1" id="Layer_1" xmlns="http://www.w3.org/2000/svg" xmlns:xlink="http://www.w3.org/1999/xlink" x="0px" y="0px"
	 viewBox="0 0 77 46.7" style="enable-background:new 0 0 77 46.7;" xml:space="preserve">
<style type="text/css">
	.st0{fill:none;stroke:#B3B4B4;stroke-width:4;stroke-miterlimit:10;}
	.st1{fill:none;stroke:#B3B4B4;stroke-width:6;}
	.st2{fill:#FFFFFF;}
</style>
<image style="display:none;overflow:visible;enable-background:new    ;" width="2481" height="3507" xlink:href="2A83F30EE3CDC138.jpeg"  transform="matrix(0.24 0 0 0.24 -75.2614 -254.7981)">
</image>
<path class="st0" d="M27.4,10.4c14.9-12.2,21.3,5.4,21.3,5.4C63.9,27,46,41.9,41.6,38.5c-7.1,11.5-20.3,4.4-21-1
	c-18.9,15.2-23-9.1-13.9-9.8C-10.2,9.4,23.4,1.6,27.4,10.4z"/>
<g>
	<g>
		<circle class="st1" cx="38.4" cy="21.5" r="6.5"/>
		<path class="st1" d="M41.3,15.8c8-9.8,19.8-7.2,19.8-7.2V5.1l9.8,5.4l-9.3,5.4v-3.2c-7.9-2.9-17,6.6-17,6.6"/>
	</g>
	<g>
		<circle class="st2" cx="38.4" cy="21.5" r="6.5"/>
		<path class="st2" d="M41.3,15.8c8-9.8,19.8-7.2,19.8-7.2V5.1l9.8,5.4l-9.3,5.4v-3.2c-7.9-2.9-17,6.6-17,6.6"/>
	</g>
</g>
</svg>
