<?xml version="1.0" encoding="utf-8"?>
<!-- Generator: Adobe Illustrator 22.0.0, SVG Export Plug-In . SVG Version: 6.00 Build 0)  -->
<svg version="1.1" id="Layer_1" xmlns="http://www.w3.org/2000/svg" xmlns:xlink="http://www.w3.org/1999/xlink" x="0px" y="0px"
	 viewBox="0 0 74.5 76.2" style="enable-background:new 0 0 74.5 76.2;" xml:space="preserve">
<style type="text/css">
	.st0{fill:none;stroke:#B3B4B4;stroke-width:6;}
	.st1{fill:#FFFFFF;}
</style>
<image style="display:none;overflow:visible;enable-background:new    ;" width="2483" height="3513" xlink:href="A1866A9E368D9E44.jpeg"  transform="matrix(0.2396 0 0 0.2396 -211.9135 -114.7765)">
</image>
<g>
	<g>
		<circle class="st0" cx="38" cy="38.1" r="16"/>
		<circle class="st0" cx="38" cy="9.4" r="6.4"/>
		<circle class="st0" cx="38" cy="66.8" r="6.4"/>
		<circle class="st0" cx="65.1" cy="54.1" r="6.4"/>
		<circle class="st0" cx="9.4" cy="54.1" r="6.4"/>
		<circle class="st0" cx="65.1" cy="22.1" r="6.4"/>
		<circle class="st0" cx="9.4" cy="22.1" r="6.4"/>
		<rect x="34.7" y="6.6" class="st0" width="6.4" height="23.3"/>
		<rect x="34.7" y="43.4" class="st0" width="6.4" height="23.3"/>
		
			<rect x="42.3" y="25.3" transform="matrix(0.8875 -0.4608 0.4608 0.8875 -7.0635 28.0669)" class="st0" width="23.3" height="6.4"/>
		
			<rect x="9.5" y="44.4" transform="matrix(0.8875 -0.4608 0.4608 0.8875 -19.5545 15.0959)" class="st0" width="23.3" height="6.4"/>
		<rect x="50.7" y="36.1" transform="matrix(0.5 -0.866 0.866 0.5 -14.3829 70.5084)" class="st0" width="6.4" height="23.3"/>
		<rect x="16.6" y="15.9" transform="matrix(0.5 -0.866 0.866 0.5 -14.0059 30.9045)" class="st0" width="6.4" height="23.3"/>
	</g>
	<g>
		<circle class="st1" cx="38" cy="38.1" r="16"/>
		<circle class="st1" cx="38" cy="9.4" r="6.4"/>
		<circle class="st1" cx="38" cy="66.8" r="6.4"/>
		<circle class="st1" cx="65.1" cy="54.1" r="6.4"/>
		<circle class="st1" cx="9.4" cy="54.1" r="6.4"/>
		<circle class="st1" cx="65.1" cy="22.1" r="6.4"/>
		<circle class="st1" cx="9.4" cy="22.1" r="6.4"/>
		<rect x="34.7" y="6.6" class="st1" width="6.4" height="23.3"/>
		<rect x="34.7" y="43.4" class="st1" width="6.4" height="23.3"/>
		
			<rect x="42.3" y="25.3" transform="matrix(0.8875 -0.4608 0.4608 0.8875 -7.0635 28.0669)" class="st1" width="23.3" height="6.4"/>
		
			<rect x="9.5" y="44.4" transform="matrix(0.8875 -0.4608 0.4608 0.8875 -19.5545 15.0959)" class="st1" width="23.3" height="6.4"/>
		<rect x="50.7" y="36.1" transform="matrix(0.5 -0.866 0.866 0.5 -14.3829 70.5084)" class="st1" width="6.4" height="23.3"/>
		<rect x="16.6" y="15.9" transform="matrix(0.5 -0.866 0.866 0.5 -14.0059 30.9045)" class="st1" width="6.4" height="23.3"/>
	</g>
</g>
</svg>
