<?xml version="1.0" encoding="utf-8"?>
<!-- Generator: Adobe Illustrator 22.0.0, SVG Export Plug-In . SVG Version: 6.00 Build 0)  -->
<svg version="1.1" id="Layer_1" xmlns="http://www.w3.org/2000/svg" xmlns:xlink="http://www.w3.org/1999/xlink" x="0px" y="0px"
	 viewBox="0 0 70.7 48.9" style="enable-background:new 0 0 70.7 48.9;" xml:space="preserve">
<style type="text/css">
	.st0{fill:#FFFFFF;stroke:#999999;stroke-width:3;stroke-miterlimit:10;}
</style>
<image style="display:none;overflow:visible;enable-background:new    ;" width="2483" height="3513" xlink:href="4B0AB3F75CD61291.jpeg"  transform="matrix(0.2396 0 0 0.2396 -352.0111 -126.4725)">
</image>
<g>
	<path class="st0" d="M36.2,24.5h29.5c3.9-0.7,3.5-6,3.5-6V4.8c-1.8-4.2-5.6-3.2-5.6-3.2h-7.7C52.7,2.1,52,6.5,52,6.5
		c-0.1,1.5-2.7,1.1-2.7,1.1h-13c-3.2-0.2-3.2,1.7-3.2,1.7V23C33,24.7,36.2,24.5,36.2,24.5z"/>
	<path class="st0" d="M20.4,35.9h29.5c3.9-0.7,3.5-6,3.5-6V16.2C51.6,12,47.8,13,47.8,13h-7.7c-3.2,0.5-3.9,4.9-3.9,4.9
		c-0.1,1.5-2.7,1.1-2.7,1.1h-13c-3.2-0.2-3.2,1.7-3.2,1.7v13.7C17.2,36.1,20.4,35.9,20.4,35.9z"/>
	<path class="st0" d="M4.6,47.4h29.5c3.9-0.7,3.5-6,3.5-6V27.7c-1.8-4.2-5.6-3.2-5.6-3.2h-7.7c-3.2,0.5-3.9,4.9-3.9,4.9
		c-0.1,1.5-2.7,1.1-2.7,1.1h-13c-3.2-0.2-3.2,1.7-3.2,1.7v13.7C1.4,47.6,4.6,47.4,4.6,47.4z"/>
</g>
</svg>
