<?xml version="1.0" encoding="utf-8"?>
<!-- Generator: Adobe Illustrator 22.0.0, SVG Export Plug-In . SVG Version: 6.00 Build 0)  -->
<svg version="1.1" id="Layer_1" xmlns="http://www.w3.org/2000/svg" xmlns:xlink="http://www.w3.org/1999/xlink" x="0px" y="0px"
	 viewBox="0 0 62.1 59.3" style="enable-background:new 0 0 62.1 59.3;" xml:space="preserve">
<style type="text/css">
	.st0{fill:none;stroke:#B3B4B4;stroke-width:3;stroke-miterlimit:10;}
</style>
<image style="display:none;overflow:visible;enable-background:new    ;" width="2492" height="3524" xlink:href="4B5B2800E8370CB4.jpeg"  transform="matrix(0.2388 0 0 0.2388 -78.7111 -117.8075)">
</image>
<path class="st0" d="M52.6,57.3H9.5c-4.1,0-7.5-3.4-7.5-7.5V34.5C2,30.4,5.4,27,9.5,27h43.1c4.1,0,7.5,3.4,7.5,7.5v15.3
	C60.1,53.9,56.7,57.3,52.6,57.3z"/>
<path class="st0" d="M51,26.9C52.5,3.6,34.8,2,34.8,2C11.5,2,13,26.9,13,26.9"/>
<path class="st0" d="M44.1,26.9C46.3,11.5,33.5,10,33.5,10c-15.6,1-12.3,16.9-12.3,16.9"/>
<path class="st0" d="M29.4,40.3c-5.8-5.8,1.6-6.6,1.6-6.6c7.4,1,2.1,6.5,2.1,6.5l3,5.6H26L29.4,40.3z"/>
</svg>
